<svg width="174" height="87" viewBox="0 0 174 87" fill="none" xmlns="http://www.w3.org/2000/svg">
<path d="M155.518 69.7984L157.551 66.715H156.528L155.08 68.9841L153.647 66.715H152.585L154.621 69.8189V71.8404H155.53L155.518 69.7984ZM152.6 71.1304V68.978H150.419V69.7616H151.728V70.7253C151.56 70.8493 151.374 70.9453 151.176 71.0097C150.954 71.082 150.723 71.118 150.49 71.1161C150.245 71.1198 150.002 71.0724 149.776 70.977C149.569 70.8875 149.382 70.7566 149.228 70.5923C149.071 70.4242 148.949 70.2258 148.872 70.0092C148.787 69.7744 148.745 69.5263 148.747 69.2767C148.746 69.0361 148.789 68.7973 148.876 68.5728C148.957 68.36 149.076 68.1637 149.228 67.9938C149.375 67.8285 149.555 67.6948 149.756 67.6009C149.961 67.5051 150.184 67.4561 150.41 67.4577C150.559 67.4568 150.707 67.4706 150.852 67.4986C150.979 67.5234 151.103 67.5604 151.223 67.6091C151.335 67.6556 151.443 67.7132 151.544 67.781C151.649 67.8508 151.749 67.9266 151.845 68.0081L152.416 67.3268C152.287 67.2173 152.15 67.1181 152.006 67.0301C151.866 66.9438 151.718 66.8712 151.564 66.8132C151.399 66.7523 151.229 66.7071 151.055 66.6781C150.852 66.6449 150.647 66.6292 150.441 66.6311C150.075 66.6246 149.712 66.6943 149.375 66.8357C149.062 66.9687 148.778 67.1628 148.541 67.4066C148.303 67.6504 148.117 67.939 147.992 68.2557C147.862 68.581 147.796 68.9284 147.797 69.2787C147.794 69.6368 147.859 69.9923 147.988 70.3263C148.108 70.6417 148.293 70.9285 148.53 71.1688C148.767 71.409 149.051 71.5973 149.365 71.7218C149.711 71.8608 150.082 71.9303 150.455 71.9264C150.672 71.9275 150.888 71.9069 151.1 71.865C151.481 71.7898 151.844 71.6448 152.172 71.4374C152.322 71.3451 152.466 71.2426 152.602 71.1304H152.6ZM146.447 69.289C146.448 69.5302 146.404 69.7696 146.318 69.9949C146.238 70.2089 146.117 70.4055 145.962 70.5739C145.808 70.7393 145.622 70.8716 145.416 70.9627C145.088 71.1061 144.724 71.1437 144.373 71.0704C144.023 70.9971 143.704 70.8164 143.462 70.5534C143.308 70.3855 143.187 70.1897 143.106 69.9764C142.935 69.5207 142.935 69.0184 143.106 68.5626C143.186 68.3486 143.307 68.152 143.462 67.9836C143.615 67.8181 143.801 67.6858 144.008 67.5948C144.229 67.4995 144.468 67.4503 144.709 67.4503C144.95 67.4503 145.188 67.4995 145.41 67.5948C145.618 67.6881 145.806 67.8224 145.962 67.9897C146.118 68.1587 146.239 68.356 146.32 68.5708C146.407 68.7988 146.45 69.041 146.447 69.2849V69.289ZM147.392 69.2746C147.392 68.9235 147.322 68.5759 147.188 68.2516C147.062 67.9355 146.874 67.6479 146.635 67.4057C146.396 67.1635 146.111 66.9718 145.796 66.8418C145.453 66.7008 145.084 66.6312 144.712 66.6372C144.353 66.6319 143.997 66.6989 143.665 66.8343C143.333 66.9696 143.031 67.1705 142.778 67.425C142.539 67.6671 142.35 67.9543 142.222 68.27C141.959 68.9268 141.959 69.6593 142.222 70.3161C142.348 70.6322 142.536 70.9198 142.775 71.162C143.014 71.4041 143.299 71.5959 143.613 71.7259C143.957 71.8669 144.326 71.9365 144.698 71.9305C145.056 71.9364 145.413 71.8696 145.745 71.7342C146.077 71.5989 146.379 71.3977 146.631 71.1427C146.871 70.9007 147.06 70.6134 147.188 70.2977C147.323 69.9721 147.392 69.623 147.392 69.2705V69.2746ZM138.471 71.8445H142.058V71.0261H139.365V66.715H138.471V71.8445ZM136.886 69.2849C136.887 69.5261 136.843 69.7655 136.757 69.9908C136.676 70.2048 136.555 70.4014 136.401 70.5698C136.247 70.7352 136.061 70.8675 135.854 70.9586C135.526 71.102 135.162 71.1396 134.812 71.0663C134.462 70.993 134.143 70.8123 133.9 70.5494C133.745 70.3803 133.623 70.1831 133.542 69.9683C133.371 69.5125 133.371 69.0102 133.542 68.5544C133.623 68.3404 133.744 68.1438 133.898 67.9754C134.052 67.8099 134.238 67.6776 134.445 67.5866C134.666 67.4913 134.904 67.4421 135.145 67.4421C135.386 67.4421 135.625 67.4913 135.846 67.5866C136.055 67.68 136.243 67.8142 136.399 67.9815C136.554 68.1505 136.676 68.3478 136.757 68.5626C136.845 68.793 136.889 69.0381 136.886 69.2849V69.2849ZM137.831 69.2705C137.83 68.9194 137.761 68.5718 137.626 68.2475C137.5 67.9313 137.313 67.6436 137.074 67.4015C136.835 67.1593 136.549 66.9676 136.235 66.8377C135.891 66.6967 135.522 66.6271 135.15 66.6331C134.792 66.6278 134.436 66.6948 134.103 66.8302C133.771 66.9655 133.47 67.1664 133.217 67.4209C132.977 67.663 132.788 67.9502 132.66 68.2659C132.398 68.9227 132.398 69.6552 132.66 70.312C132.786 70.6281 132.974 70.9157 133.213 71.1579C133.452 71.4 133.737 71.5918 134.052 71.7218C134.395 71.8625 134.763 71.9322 135.134 71.9264C135.493 71.9317 135.849 71.8647 136.181 71.7293C136.513 71.594 136.815 71.3931 137.068 71.1386C137.307 70.8966 137.496 70.6093 137.624 70.2936C137.759 69.9694 137.83 69.6218 137.831 69.2705V69.2705ZM130.937 70.2588L128.198 66.715H127.365V71.8302H128.259V68.1943L131.079 71.8404H131.832V66.7252H130.937V70.2588ZM125.603 69.6798V71.8384H126.495V66.7232H125.603V68.8531H123.148V66.715H122.254V71.8302H123.148V69.6798H125.603ZM121.757 71.02L121.177 70.4348C120.977 70.6255 120.753 70.7893 120.51 70.9217C120.261 71.0475 119.984 71.1094 119.704 71.1018C119.471 71.1039 119.24 71.055 119.027 70.9586C118.823 70.8661 118.64 70.7331 118.489 70.5678C118.335 70.3985 118.216 70.2012 118.137 69.9867C118.053 69.7581 118.01 69.5162 118.012 69.2726C118.01 69.0303 118.053 68.7897 118.137 68.5626C118.216 68.3499 118.335 68.1546 118.489 67.9876C118.641 67.8236 118.824 67.6914 119.027 67.5989C119.24 67.5024 119.471 67.4535 119.704 67.4557C119.976 67.4508 120.245 67.5112 120.488 67.6316C120.725 67.7543 120.944 67.9092 121.139 68.092L121.718 67.425C121.598 67.3117 121.47 67.2071 121.335 67.1119C121.195 67.0128 121.046 66.9285 120.889 66.8602C120.719 66.7862 120.541 66.7307 120.359 66.6945C120.148 66.6535 119.934 66.6337 119.719 66.6352C119.352 66.6291 118.989 66.6988 118.651 66.8398C118.338 66.9722 118.055 67.1656 117.818 67.4088C117.581 67.6519 117.396 67.9398 117.271 68.2557C117.01 68.9219 117.01 69.6622 117.271 70.3284C117.397 70.641 117.583 70.926 117.818 71.1673C118.051 71.4059 118.329 71.5963 118.636 71.7279C118.965 71.8668 119.319 71.9364 119.676 71.9325C119.895 71.9346 120.115 71.9141 120.33 71.8711C120.519 71.8331 120.703 71.7719 120.877 71.689C121.041 71.6093 121.196 71.5133 121.341 71.4026C121.491 71.2872 121.631 71.1592 121.759 71.02H121.757ZM116.641 66.7232H112.846V71.8384H116.674V71.02H113.738V69.6511H116.308V68.8327H113.738V67.5211H116.629L116.641 66.7232ZM110.722 67.558H112.346V66.7232H108.185V67.558H109.809V71.8548H110.718L110.722 67.558ZM104.068 70.713C103.933 70.8466 103.777 70.9578 103.607 71.0425C103.45 71.1195 103.277 71.1594 103.102 71.1591C102.879 71.1695 102.66 71.0966 102.488 70.9545C102.41 70.8878 102.348 70.8045 102.306 70.7107C102.264 70.6169 102.244 70.5149 102.247 70.4123C102.248 70.2394 102.304 70.0716 102.408 69.9335C102.545 69.7634 102.724 69.6333 102.928 69.557L104.068 70.713ZM104.037 67.9304C104.039 68.0193 104.022 68.1076 103.987 68.1892C103.951 68.2708 103.899 68.3437 103.833 68.403C103.655 68.5507 103.452 68.6639 103.233 68.7365C103.116 68.613 103.015 68.4756 102.932 68.3273C102.873 68.2142 102.843 68.0885 102.844 67.961C102.841 67.8789 102.853 67.7969 102.881 67.7196C102.909 67.6424 102.952 67.5715 103.008 67.5109C103.125 67.4029 103.278 67.3418 103.437 67.3392C103.596 67.3365 103.751 67.3926 103.871 67.4966C103.928 67.553 103.972 67.6209 104.001 67.6956C104.029 67.7704 104.042 67.8504 104.037 67.9304V67.9304ZM105.926 71.4742L105.12 70.6558C105.253 70.4734 105.376 70.2842 105.49 70.089C105.604 69.8912 105.713 69.6866 105.815 69.4752L105.134 69.1171C105.051 69.2971 104.963 69.4704 104.87 69.6368C104.777 69.8032 104.682 69.9594 104.583 70.1054L103.706 69.2112C104.013 69.105 104.293 68.9309 104.524 68.7017C104.628 68.5906 104.708 68.4598 104.761 68.3172C104.814 68.1746 104.838 68.0229 104.831 67.871C104.833 67.7023 104.799 67.5351 104.733 67.38C104.668 67.2306 104.573 67.0962 104.455 66.9851C104.331 66.87 104.185 66.7803 104.027 66.7211C103.849 66.6559 103.66 66.624 103.47 66.627C103.261 66.6237 103.053 66.6598 102.857 66.7334C102.687 66.7978 102.531 66.8936 102.396 67.0158C102.271 67.1303 102.171 67.2697 102.104 67.425C102.035 67.5818 102 67.7511 102.001 67.9222C102 68.1065 102.035 68.2893 102.104 68.4603C102.186 68.6532 102.294 68.8342 102.425 68.9984C102.108 69.1207 101.826 69.3205 101.606 69.5795C101.415 69.8246 101.316 70.1283 101.324 70.4389C101.32 70.6418 101.361 70.843 101.444 71.0284C101.527 71.2137 101.649 71.3785 101.803 71.511C101.957 71.6437 102.137 71.7446 102.331 71.8077C102.545 71.8778 102.769 71.9123 102.994 71.91C103.289 71.9136 103.582 71.8521 103.851 71.73C104.115 71.6071 104.357 71.4427 104.569 71.243L105.25 71.9387L105.926 71.4742ZM98.7909 71.1366V68.978H96.6097V69.7616H97.9192V70.7253C97.7516 70.8493 97.5651 70.9453 97.3668 71.0097C97.1456 71.082 96.9141 71.118 96.6813 71.1161C96.4362 71.1198 96.193 71.0724 95.9672 70.977C95.7602 70.8874 95.5736 70.7565 95.4189 70.5923C95.2617 70.4242 95.1406 70.2258 95.0629 70.0092C94.9781 69.7744 94.9359 69.5263 94.938 69.2767C94.9367 69.0361 94.9805 68.7974 95.0669 68.5728C95.1479 68.36 95.2672 68.1637 95.4189 67.9938C95.5664 67.8285 95.746 67.6948 95.9468 67.6009C96.1517 67.5051 96.3753 67.4561 96.6015 67.4577C96.7498 67.4568 96.8979 67.4706 97.0435 67.4986C97.1702 67.5234 97.2943 67.5604 97.4138 67.6091C97.5263 67.6556 97.6339 67.7132 97.7351 67.781C97.8397 67.8508 97.9401 67.9266 98.0359 68.0081L98.6067 67.3268C98.4783 67.2173 98.3414 67.1182 98.1975 67.0301C98.0575 66.9438 97.9095 66.8711 97.7555 66.8132C97.5903 66.7523 97.4197 66.7071 97.2461 66.6781C97.0432 66.6449 96.8378 66.6292 96.6322 66.6311C96.2665 66.6246 95.9035 66.6943 95.5662 66.8357C95.2529 66.9687 94.9693 67.1628 94.7318 67.4066C94.4943 67.6504 94.3078 67.939 94.183 68.2557C94.053 68.581 93.987 68.9284 93.9886 69.2787C93.9852 69.6368 94.0498 69.9923 94.1789 70.3263C94.2992 70.6417 94.4837 70.9285 94.7208 71.1688C94.9579 71.409 95.2423 71.5973 95.556 71.7218C95.9026 71.8608 96.2731 71.9303 96.6465 71.9264C96.8629 71.9275 97.0788 71.9069 97.2911 71.865C97.6718 71.7898 98.0353 71.6448 98.3632 71.4374C98.5134 71.3451 98.657 71.2426 98.7929 71.1304L98.7909 71.1366ZM92.4622 70.2649L89.7225 66.7211H88.8897V71.8363H89.7839V68.1943L92.6034 71.8404H93.3564V66.7252H92.4643L92.4622 70.2649ZM87.0707 66.7211V71.8363H87.9628V66.7211H87.0707ZM84.8936 67.5559H86.5183V66.7211H82.3605V67.5559H83.9852V71.8527H84.8936V67.5559ZM79.3691 71.8527H82.956V71.0343H80.2714V66.715H79.3773L79.3691 71.8527ZM78.5814 66.7375H77.6872V69.6879C77.7109 70.0677 77.5879 70.442 77.3435 70.7335C77.2188 70.8559 77.07 70.951 76.9065 71.0126C76.743 71.0743 76.5685 71.1012 76.394 71.0916C76.2169 71.1013 76.0398 71.0729 75.8746 71.0083C75.7094 70.9437 75.56 70.8444 75.4365 70.7171C75.1877 70.4112 75.0648 70.022 75.0927 69.6286V66.715H74.1986V69.6654C74.1921 69.9979 74.244 70.329 74.352 70.6435C74.4449 70.9083 74.5951 71.1493 74.7919 71.3494C74.986 71.5418 75.221 71.688 75.4794 71.777C75.7692 71.8758 76.0737 71.9243 76.3797 71.9202C76.6892 71.9243 76.997 71.8759 77.2903 71.777C77.5509 71.6882 77.7876 71.5405 77.9818 71.3453C78.1795 71.14 78.3303 70.8943 78.4238 70.6251C78.5344 70.3026 78.5877 69.9633 78.5814 69.6225V66.7375ZM70.7959 68.0552C70.7959 67.9705 70.8158 67.887 70.8538 67.8114C70.8918 67.7357 70.9469 67.67 71.0148 67.6194C71.1924 67.49 71.4093 67.4263 71.6286 67.4393C71.867 67.4399 72.1031 67.4857 72.3243 67.5743C72.5719 67.6745 72.8057 67.8058 73.02 67.9651L73.5029 67.2838C73.2489 67.0796 72.9636 66.9179 72.6578 66.805C72.3293 66.6895 71.9829 66.6334 71.6348 66.6393C71.3966 66.6368 71.1597 66.6728 70.933 66.7457C70.7312 66.809 70.5441 66.912 70.3826 67.0485C70.2308 67.1791 70.1081 67.3401 70.0224 67.5211C69.9333 67.7133 69.8885 67.9231 69.8915 68.135C69.8843 68.3453 69.9227 68.5547 70.004 68.7488C70.0797 68.9146 70.1933 69.0604 70.3355 69.1744C70.4969 69.3007 70.678 69.3996 70.8716 69.467C71.1107 69.55 71.3546 69.6183 71.602 69.6716C71.7991 69.7177 71.9937 69.7737 72.1852 69.8394C72.3095 69.8811 72.4278 69.9388 72.5371 70.0112C72.6135 70.0619 72.6744 70.1327 72.7131 70.2158C72.746 70.2949 72.762 70.3799 72.7601 70.4655C72.7629 70.5592 72.7418 70.6521 72.6988 70.7355C72.6559 70.8189 72.5925 70.89 72.5146 70.9422C72.3175 71.0689 72.0856 71.1305 71.8517 71.1182C71.5549 71.1232 71.2604 71.0646 70.9882 70.9463C70.714 70.8184 70.4597 70.6517 70.2332 70.4511L69.691 71.0957C69.9829 71.3624 70.3232 71.5707 70.6936 71.7095C71.0567 71.8453 71.4414 71.9146 71.8292 71.9141C72.0791 71.9166 72.328 71.8821 72.5678 71.8118C72.7776 71.7509 72.9731 71.6486 73.1428 71.511C73.3019 71.3799 73.4298 71.2149 73.5172 71.0281C73.6097 70.8239 73.6558 70.6017 73.6522 70.3775C73.6567 70.1852 73.6204 69.9941 73.5459 69.8169C73.4723 69.6594 73.3655 69.5198 73.2328 69.4076C73.0787 69.2775 72.9036 69.1745 72.7151 69.1028C72.4823 69.0117 72.2437 68.9358 72.001 68.8756C71.7555 68.8163 71.555 68.7611 71.3872 68.7079C71.2549 68.6666 71.1289 68.6074 71.0128 68.5319C70.9339 68.4811 70.8697 68.4106 70.8266 68.3273C70.796 68.2401 70.7855 68.147 70.7959 68.0552V68.0552ZM68.2812 70.2588L65.5414 66.715H64.7087V71.8302H65.6028V68.1943L68.4224 71.8404H69.1753V66.7252H68.2832L68.2812 70.2588ZM63.1229 69.2849C63.124 69.5261 63.0803 69.7655 62.994 69.9908C62.9135 70.2048 62.7926 70.4014 62.638 70.5698C62.4842 70.7352 62.2983 70.8675 62.0917 70.9586C61.7638 71.102 61.3995 71.1396 61.0492 71.0663C60.699 70.993 60.3804 70.8123 60.1376 70.5494C59.9822 70.3803 59.8606 70.1831 59.7796 69.9683C59.6086 69.5125 59.6086 69.0102 59.7796 68.5544C59.86 68.3404 59.9809 68.1438 60.1356 67.9754C60.2893 67.8099 60.4752 67.6776 60.6819 67.5866C60.9032 67.4913 61.1417 67.4421 61.3827 67.4421C61.6237 67.4421 61.8621 67.4913 62.0835 67.5866C62.2922 67.6799 62.4801 67.8142 62.6359 67.9815C62.7913 68.1505 62.9129 68.3478 62.994 68.5626C63.085 68.7925 63.1316 69.0376 63.1311 69.2849H63.1229ZM64.0682 69.2705C64.0677 68.9194 63.9982 68.5718 63.8636 68.2475C63.7379 67.9313 63.5499 67.6436 63.3109 67.4015C63.0719 67.1593 62.7867 66.9676 62.4723 66.8377C62.1284 66.6967 61.7594 66.6271 61.3878 66.6331C61.0291 66.6278 60.673 66.6948 60.3408 66.8302C60.0086 66.9655 59.7071 67.1664 59.4542 67.4209C59.2147 67.663 59.0256 67.9502 58.8977 68.2659C58.6353 68.9227 58.6353 69.6552 58.8977 70.312C59.0235 70.6281 59.2115 70.9157 59.4505 71.1579C59.6895 71.4 59.9746 71.5918 60.289 71.7218C60.6323 71.8625 61.0005 71.9322 61.3714 71.9264C61.7301 71.9317 62.0862 71.8647 62.4184 71.7293C62.7506 71.594 63.0522 71.3931 63.305 71.1386C63.5447 70.8966 63.7338 70.6093 63.8616 70.2936C63.9996 69.97 64.0726 69.6224 64.0764 69.2705H64.0682ZM58.5887 71.02L58.0097 70.4348C57.8095 70.6255 57.5853 70.7892 57.3426 70.9217C57.0929 71.0475 56.8159 71.1094 56.5365 71.1018C56.303 71.1039 56.0718 71.055 55.8592 70.9586C55.6552 70.8661 55.4722 70.7331 55.3211 70.5678C55.17 70.3946 55.054 70.1938 54.9794 69.9764C54.8952 69.7479 54.8529 69.506 54.8545 69.2624C54.8527 69.0201 54.895 68.7795 54.9794 68.5524C55.0582 68.3397 55.1777 68.1444 55.3313 67.9774C55.483 67.8133 55.666 67.6812 55.8694 67.5887C56.082 67.4921 56.3132 67.4432 56.5467 67.4454C56.8182 67.4406 57.087 67.5009 57.3304 67.6214C57.5675 67.744 57.7865 67.899 57.981 68.0818L58.5601 67.4147C58.4384 67.2984 58.3085 67.191 58.1713 67.0935C58.0317 66.9944 57.8822 66.9101 57.7253 66.8418C57.555 66.7678 57.3774 66.7122 57.1953 66.6761C56.9843 66.6351 56.7698 66.6153 56.5549 66.6168C56.1886 66.6107 55.8249 66.6803 55.4868 66.8214C55.1743 66.9538 54.8914 67.1472 54.6546 67.3904C54.4178 67.6335 54.2319 67.9214 54.1077 68.2373C53.8464 68.9035 53.8464 69.6438 54.1077 70.31C54.2333 70.6226 54.4189 70.9076 54.654 71.1489C54.8876 71.3874 55.1656 71.5779 55.4725 71.7095C55.8012 71.8483 56.1551 71.918 56.5119 71.9141C56.7317 71.9162 56.9511 71.8957 57.1667 71.8527C57.3556 71.8147 57.539 71.7535 57.713 71.6706C57.877 71.5909 58.0326 71.4949 58.1774 71.3842C58.3273 71.2748 58.4676 71.1529 58.5969 71.02H58.5887ZM49.7208 69.8046H47.9571L48.8349 67.7585L49.7208 69.8046ZM49.2666 66.6781H48.4318L46.181 71.8384H47.1038L47.6317 70.6107H50.0544L50.5741 71.8384H51.5255L49.2666 66.6781ZM42.5349 71.8384H46.1217V71.02H43.4208V66.715H42.5267L42.5349 71.8384ZM41.7471 66.7232H40.855V69.6736C40.8841 70.0612 40.7599 70.4447 40.5092 70.7417C40.3845 70.8641 40.2357 70.9592 40.0723 71.0208C39.9088 71.0825 39.7342 71.1094 39.5598 71.0998C39.3827 71.1095 39.2056 71.0811 39.0404 71.0165C38.8752 70.9519 38.7258 70.8526 38.6022 70.7253C38.3522 70.4191 38.2285 70.0291 38.2564 69.6347V66.715H37.3643V69.6654C37.3579 69.9979 37.4098 70.329 37.5178 70.6435C37.6107 70.9083 37.7609 71.1493 37.9577 71.3494C38.1518 71.5418 38.3868 71.688 38.6452 71.777C38.9349 71.8758 39.2394 71.9243 39.5455 71.9202C39.8549 71.9243 40.1628 71.8759 40.456 71.777C40.7167 71.6882 40.9533 71.5405 41.1476 71.3453C41.3453 71.14 41.496 70.8943 41.5896 70.6251C41.7001 70.3026 41.7534 69.9633 41.7471 69.6225V66.7232ZM36.0548 68.4623C36.0596 68.5899 36.0352 68.7169 35.9835 68.8336C35.9317 68.9502 35.8539 69.0535 35.7561 69.1355C35.5235 69.3175 35.2323 69.4078 34.9376 69.3892H33.888V67.5211H34.9376C35.2253 67.5056 35.5099 67.587 35.7458 67.7523C35.8496 67.8359 35.9314 67.9434 35.9842 68.0657C36.037 68.188 36.0591 68.3214 36.0487 68.4542L36.0548 68.4623ZM36.9694 68.4439C36.9733 68.1975 36.9259 67.9529 36.8303 67.7257C36.742 67.5187 36.6093 67.3336 36.4415 67.1835C36.2632 67.0264 36.0541 66.9079 35.8277 66.8357C35.5633 66.7511 35.2868 66.7104 35.0092 66.715H32.9877V71.8302H33.8818V70.1831H34.9049C35.1756 70.1852 35.4452 70.1472 35.7049 70.0706C35.9414 70.001 36.1627 69.8879 36.3576 69.7371C36.5435 69.5896 36.6939 69.4022 36.7975 69.1887C36.9093 68.9536 36.966 68.6961 36.9633 68.4357L36.9694 68.4439ZM32.2142 66.7232H31.3058V69.6736C31.3349 70.0612 31.2107 70.4447 30.96 70.7417C30.8353 70.8641 30.6865 70.9592 30.523 71.0208C30.3595 71.0825 30.185 71.1094 30.0106 71.0998C29.8334 71.1096 29.6563 71.0813 29.4911 71.0167C29.3258 70.9521 29.1764 70.8527 29.053 70.7253C28.8029 70.4191 28.6793 70.0291 28.7072 69.6347V66.715H27.8273V69.6654C27.8209 69.9979 27.8729 70.3289 27.9808 70.6435C28.0737 70.9083 28.2239 71.1493 28.4207 71.3494C28.6148 71.5418 28.8498 71.688 29.1082 71.777C29.3979 71.8758 29.7024 71.9243 30.0085 71.9202C30.3179 71.9243 30.6258 71.8759 30.919 71.777C31.1797 71.6882 31.4164 71.5405 31.6106 71.3453C31.8083 71.14 31.9591 70.8943 32.0526 70.6251C32.1631 70.3026 32.2165 69.9633 32.2101 69.6225L32.2142 66.7232ZM27.4181 71.02L26.8391 70.4348C26.639 70.6255 26.4147 70.7893 26.172 70.9217C25.9223 71.0475 25.6453 71.1094 25.3659 71.1018C25.1324 71.1039 24.9012 71.055 24.6886 70.9586C24.4846 70.8661 24.3016 70.7331 24.1505 70.5678C23.9969 70.3985 23.8774 70.2012 23.7985 69.9867C23.7143 69.7581 23.672 69.5162 23.6737 69.2726C23.6718 69.0303 23.7141 68.7897 23.7985 68.5626C23.8774 68.3499 23.9969 68.1546 24.1505 67.9876C24.3022 67.8236 24.4852 67.6914 24.6886 67.5989C24.9012 67.5024 25.1324 67.4535 25.3659 67.4557C25.6374 67.4508 25.9061 67.5112 26.1495 67.6316C26.3866 67.7543 26.6056 67.9092 26.8002 68.092L27.3792 67.425C27.2576 67.3086 27.1277 67.2013 26.9905 67.1037C26.8509 67.0047 26.7014 66.9203 26.5444 66.8521C26.3742 66.7781 26.1965 66.7225 26.0145 66.6863C25.8035 66.6454 25.589 66.6255 25.3741 66.627C25.0077 66.6209 24.6441 66.6906 24.306 66.8316C23.9935 66.964 23.7106 67.1575 23.4738 67.4006C23.237 67.6437 23.051 67.9316 22.9269 68.2475C22.6656 68.9137 22.6656 69.654 22.9269 70.3202C23.0525 70.6328 23.2381 70.9178 23.4732 71.1591C23.7067 71.3977 23.9848 71.5881 24.2917 71.7197C24.6204 71.8585 24.9742 71.9282 25.3311 71.9243C25.5509 71.9264 25.7703 71.9059 25.9858 71.8629C26.1747 71.8249 26.3582 71.7637 26.5322 71.6808C26.6962 71.6011 26.8518 71.5051 26.9966 71.3944C27.1475 71.2818 27.2886 71.1566 27.4181 71.02V71.02ZM21.0445 69.8046H19.2725L20.1503 67.7585L21.0445 69.8046ZM20.5902 66.6781H19.7493L17.4985 71.8384H18.4152L18.9431 70.6107H21.3657L21.8854 71.8384H22.8369L20.5902 66.6781Z" fill="#070308"/>
<path d="M154.709 22.947H168.355V15.8081H133.444V22.947H147.09V59.6376H154.712L154.709 22.947ZM132.026 52.6256L127.171 47.6167C125.497 49.2442 123.616 50.6441 121.577 51.7806C119.692 52.8036 117.441 53.3151 114.824 53.3151C112.862 53.3319 110.919 52.9126 109.138 52.0875C107.42 51.2906 105.882 50.1508 104.62 48.738C103.328 47.2821 102.327 45.5923 101.67 43.7599C100.963 41.8025 100.609 39.7353 100.624 37.6543C100.607 35.5838 100.961 33.5271 101.67 31.5815C102.328 29.7698 103.33 28.1024 104.62 26.6709C105.889 25.2738 107.426 24.1453 109.138 23.3521C110.919 22.527 112.862 22.1076 114.824 22.1244C117.28 22.1244 119.472 22.6251 121.401 23.6263C123.395 24.6835 125.233 26.014 126.86 27.5793L131.715 21.881C130.698 20.8852 129.609 19.9648 128.458 19.1269C127.287 18.2784 126.032 17.5542 124.711 16.9662C123.282 16.3338 121.787 15.8591 120.255 15.5503C118.484 15.2018 116.682 15.0338 114.878 15.049C111.604 15.049 108.612 15.6438 105.903 16.8332C103.265 17.9769 100.883 19.6376 98.8975 21.7173C96.9174 23.8107 95.3647 26.2704 94.3265 28.9584C92.1445 34.6653 92.1554 40.9783 94.3571 46.6776C95.406 49.3384 96.9611 51.7704 98.9364 53.8389C100.96 55.939 103.391 57.6032 106.081 58.7292C108.771 59.8551 111.663 60.4191 114.579 60.3864C116.426 60.4023 118.269 60.224 120.079 59.8544C121.664 59.5251 123.203 58.9992 124.658 58.2892C126.035 57.6118 127.34 56.7975 128.554 55.8584C129.801 54.8813 130.963 53.7998 132.026 52.6256V52.6256ZM94.2446 52.6256L89.3892 47.6167C87.7152 49.244 85.8343 50.644 83.7951 51.7806C81.9099 52.8036 79.6592 53.3151 77.0429 53.3151C75.08 53.3319 73.1379 52.9126 71.3567 52.0875C69.6382 51.2906 68.1007 50.1508 66.8389 48.738C65.5467 47.2821 64.5452 45.5923 63.8884 43.7599C63.1815 41.8025 62.8275 39.7353 62.8428 37.6543C62.8258 35.5838 63.1799 33.5271 63.8884 31.5815C64.5464 29.7698 65.5482 28.1024 66.8389 26.6709C68.1078 25.2738 69.6441 24.1453 71.3567 23.3521C73.1378 22.527 75.08 22.1076 77.0429 22.1244C79.4982 22.1244 81.6903 22.6251 83.6191 23.6263C85.617 24.6802 87.4579 26.0079 89.0884 27.5712L93.9438 21.8728C92.9263 20.877 91.8376 19.9565 90.6864 19.1187C89.5155 18.27 88.2592 17.5459 86.9379 16.9581C85.506 16.328 84.0096 15.856 82.4753 15.5503C80.7045 15.2018 78.9029 15.0338 77.0981 15.049C73.8243 15.049 70.8329 15.6438 68.1238 16.8332C65.4858 17.977 63.1036 19.6377 61.1179 21.7173C59.1361 23.8071 57.5807 26.2632 56.5387 28.9482C56.4582 29.1514 56.3812 29.356 56.3075 29.562C57.1628 29.5743 58.0249 29.6016 58.8938 29.6438L64.1073 29.8996L55.1494 34.2701C54.9896 35.4322 54.9103 36.604 54.912 37.7771C54.8878 40.8197 55.4512 43.8384 56.5715 46.6674C57.62 49.3283 59.1752 51.7604 61.1507 53.8287C63.1739 55.9289 65.6052 57.5931 68.2953 58.7191C70.9853 59.8451 73.8772 60.409 76.7933 60.3762C78.6408 60.3922 80.485 60.2139 82.2953 59.8442C83.8808 59.5148 85.4191 58.989 86.8745 58.2789C88.2517 57.6049 89.5576 56.794 90.7723 55.8584C92.0194 54.8813 93.181 53.7998 94.2446 52.6256V52.6256ZM41.4875 38.0369L43.2676 42.2314L46.038 49.0572L50.4024 59.6396H58.3823L48.833 37.3617L48.4074 37.5663H48.1107C45.8962 37.6055 43.6853 37.7626 41.4875 38.0369V38.0369ZM19.3198 46.1129L13.519 59.6376H21.2636L25.6894 49.0552L28.4557 42.2294L28.8261 41.3475C27.4006 41.9204 25.9874 42.554 24.5865 43.2483C22.8023 44.1302 21.0467 45.0919 19.3198 46.1129ZM39.4557 15.4951H32.4497L22.1271 39.5633C24.1568 38.2681 26.2377 37.0609 28.38 35.9683C29.5054 35.3954 30.6321 34.8634 31.7602 34.3724L35.8299 24.6984L38.848 31.8127C41.1323 31.1559 43.4559 30.644 45.8048 30.2802L39.4557 15.4951Z" fill="#070308"/>
<path fill-rule="evenodd" clip-rule="evenodd" d="M48.0841 36.2343C34.2994 36.5023 23.2769 40.4247 5.64551 53.8716C21.6052 40.4288 35.3143 29.8362 58.8262 30.9922L48.0841 36.2343Z" fill="#E6C139"/>
</svg>
